<svg xmlns="http://www.w3.org/2000/svg" version="1.1" viewBox="0 0 960 525" width="1920" height="1050"><g transform="translate(20,40)"><g class="x-axis" transform="translate(0, 445)" fill="none" font-size="10" font-family="sans-serif" text-anchor="middle" style="font-size: 12px;"><path class="domain" stroke="currentColor" d="M0.5,6V0.5H910.5V6"></path><g class="tick" opacity="1" transform="translate(0.5,0)"><line stroke="currentColor" y2="6"></line><text fill="currentColor" y="9" dy="0.71em">-3.0</text></g><g class="tick" opacity="1" transform="translate(83.22727272727273,0)"><line stroke="currentColor" y2="6"></line><text fill="currentColor" y="9" dy="0.71em">-2.5</text></g><g class="tick" opacity="1" transform="translate(165.95454545454547,0)"><line stroke="currentColor" y2="6"></line><text fill="currentColor" y="9" dy="0.71em">-2.0</text></g><g class="tick" opacity="1" transform="translate(248.68181818181816,0)"><line stroke="currentColor" y2="6"></line><text fill="currentColor" y="9" dy="0.71em">-1.5</text></g><g class="tick" opacity="1" transform="translate(331.40909090909093,0)"><line stroke="currentColor" y2="6"></line><text fill="currentColor" y="9" dy="0.71em">-1.0</text></g><g class="tick" opacity="1" transform="translate(414.1363636363636,0)"><line stroke="currentColor" y2="6"></line><text fill="currentColor" y="9" dy="0.71em">-0.5</text></g><g class="tick" opacity="1" transform="translate(496.8636363636363,0)"><line stroke="currentColor" y2="6"></line><text fill="currentColor" y="9" dy="0.71em">0.0</text></g><g class="tick" opacity="1" transform="translate(579.5909090909091,0)"><line stroke="currentColor" y2="6"></line><text fill="currentColor" y="9" dy="0.71em">0.5</text></g><g class="tick" opacity="1" transform="translate(662.3181818181819,0)"><line stroke="currentColor" y2="6"></line><text fill="currentColor" y="9" dy="0.71em">1.0</text></g><g class="tick" opacity="1" transform="translate(745.0454545454546,0)"><line stroke="currentColor" y2="6"></line><text fill="currentColor" y="9" dy="0.71em">1.5</text></g><g class="tick" opacity="1" transform="translate(827.7727272727273,0)"><line stroke="currentColor" y2="6"></line><text fill="currentColor" y="9" dy="0.71em">2.0</text></g><g class="tick" opacity="1" transform="translate(910.5,0)"><line stroke="currentColor" y2="6"></line><text fill="currentColor" y="9" dy="0.71em">2.5</text></g><text class="x-label" x="496.3636363636363" y="30" fill="#000">Normalized Enrichment Score</text></g><g class="y-axis" transform="translate(496.3636363636363,0)" fill="none" font-size="10" font-family="sans-serif" text-anchor="end" style="font-size: 12px;"><path class="domain" stroke="currentColor" d="M0.5,0.5V445.5"></path><g class="tick" opacity="1" transform="translate(0,14.5)"><text fill="currentColor" x="-6" dy="0.32em">PPAR signaling pathway</text></g><g class="tick" opacity="1" transform="translate(0,36.5)"><text fill="currentColor" x="-6" dy="0.32em">Autoimmune thyroid disease</text></g><g class="tick" opacity="1" transform="translate(0,58.5)"><text fill="currentColor" x="-6" dy="0.32em">Type I diabetes mellitus</text></g><g class="tick" opacity="1" transform="translate(0,80.5)"><text fill="currentColor" x="-6" dy="0.32em">Allograft rejection</text></g><g class="tick" opacity="1" transform="translate(0,102.5)"><text fill="currentColor" x="-6" dy="0.32em">Cholesterol metabolism</text></g><g class="tick" opacity="1" transform="translate(0,124.5)"><text fill="currentColor" x="-6" dy="0.32em">Lysine degradation</text></g><g class="tick" opacity="1" transform="translate(0,146.5)"><text fill="currentColor" x="-6" dy="0.32em">Graft-versus-host disease</text></g><g class="tick" opacity="1" transform="translate(0,168.5)"><text fill="currentColor" x="-6" dy="0.32em">Thyroid hormone synthesis</text></g><g class="tick" opacity="1" transform="translate(0,190.5)"><text fill="currentColor" x="-6" dy="0.32em">Insulin resistance</text></g><g class="tick" opacity="1" transform="translate(0,212.5)"><text fill="currentColor" x="-6" dy="0.32em">Parathyroid hormone synthesis, secretion and action</text></g><g class="tick" opacity="1" transform="translate(0,234.5)"><text fill="currentColor" x="9" dy="0.32em" style="text-anchor: start;">Nucleotide excision repair</text></g><g class="tick" opacity="1" transform="translate(0,256.5)"><text fill="currentColor" x="9" dy="0.32em" style="text-anchor: start;">Fanconi anemia pathway</text></g><g class="tick" opacity="1" transform="translate(0,278.5)"><text fill="currentColor" x="9" dy="0.32em" style="text-anchor: start;">Protein digestion and absorption</text></g><g class="tick" opacity="1" transform="translate(0,300.5)"><text fill="currentColor" x="9" dy="0.32em" style="text-anchor: start;">Renin-angiotensin system</text></g><g class="tick" opacity="1" transform="translate(0,322.5)"><text fill="currentColor" x="9" dy="0.32em" style="text-anchor: start;">Alzheimer disease</text></g><g class="tick" opacity="1" transform="translate(0,344.5)"><text fill="currentColor" x="9" dy="0.32em" style="text-anchor: start;">Vascular smooth muscle contraction</text></g><g class="tick" opacity="1" transform="translate(0,366.5)"><text fill="currentColor" x="9" dy="0.32em" style="text-anchor: start;">Gap junction</text></g><g class="tick" opacity="1" transform="translate(0,388.5)"><text fill="currentColor" x="9" dy="0.32em" style="text-anchor: start;">Ribosome</text></g><g class="tick" opacity="1" transform="translate(0,410.5)"><text fill="currentColor" x="9" dy="0.32em" style="text-anchor: start;">Oxidative phosphorylation</text></g><g class="tick" opacity="1" transform="translate(0,432.5)"><text fill="currentColor" x="9" dy="0.32em" style="text-anchor: start;">Parkinson disease</text></g></g><rect class="wg-bar" fill="steelblue" x="496.3636363636363" y="4" transform="translate(0,0)" width="394.21845922316703" height="20"></rect><rect class="wg-bar" fill="steelblue" x="496.3636363636363" y="26" transform="translate(0,0)" width="350.9276892497724" height="20"></rect><rect class="wg-bar" fill="steelblue" x="496.3636363636363" y="48" transform="translate(0,0)" width="340.68515856096207" height="20"></rect><rect class="wg-bar" fill="steelblue" x="496.3636363636363" y="70" transform="translate(0,0)" width="340.68515856096207" height="20"></rect><rect class="wg-bar" fill="lightsteelblue" x="496.3636363636363" y="92" transform="translate(0,0)" width="329.6726974506585" height="20"></rect><rect class="wg-bar" fill="lightsteelblue" x="496.3636363636363" y="114" transform="translate(0,0)" width="317.51122753531007" height="20"></rect><rect class="wg-bar" fill="lightsteelblue" x="496.3636363636363" y="136" transform="translate(0,0)" width="305.6921924070345" height="20"></rect><rect class="wg-bar" fill="lightsteelblue" x="496.3636363636363" y="158" transform="translate(0,0)" width="303.571289714392" height="20"></rect><rect class="wg-bar" fill="lightsteelblue" x="496.3636363636363" y="180" transform="translate(0,0)" width="303.32612460384127" height="20"></rect><rect class="wg-bar" fill="lightsteelblue" x="496.3636363636363" y="202" transform="translate(0,0)" width="297.6324411214701" height="20"></rect><rect class="wg-bar" fill="#ffcf76" x="222.49064471194222" y="224" transform="translate(0,0)" width="273.87299165169406" height="20"></rect><rect class="wg-bar" fill="#ffcf76" x="210.0381148086858" y="246" transform="translate(0,0)" width="286.3255215549505" height="20"></rect><rect class="wg-bar" fill="#ffcf76" x="208.2836447702043" y="268" transform="translate(0,0)" width="288.07999159343206" height="20"></rect><rect class="wg-bar" fill="#ffcf76" x="200.4748457992677" y="290" transform="translate(0,0)" width="295.8887905643686" height="20"></rect><rect class="wg-bar" fill="#ffcf76" x="191.83384411864233" y="312" transform="translate(0,0)" width="304.529792244994" height="20"></rect><rect class="wg-bar" fill="#ffcf76" x="190.19398168150877" y="334" transform="translate(0,0)" width="306.16965468212754" height="20"></rect><rect class="wg-bar" fill="#ffcf76" x="185.8288453348898" y="356" transform="translate(0,0)" width="310.53479102874655" height="20"></rect><rect class="wg-bar" fill="darkorange" x="106.37939910497734" y="378" transform="translate(0,0)" width="389.984237258659" height="20"></rect><rect class="wg-bar" fill="darkorange" x="94.10336401425792" y="400" transform="translate(0,0)" width="402.2602723493784" height="20"></rect><rect class="wg-bar" fill="darkorange" x="70.15372603018947" y="422" transform="translate(0,0)" width="426.2099103334468" height="20"></rect></g><g class="legend" font-size="12"><rect fill="steelblue" x="0" y="0" width="20" height="10"></rect><rect fill="lightsteelblue" x="120" y="0" width="20" height="10"></rect><rect fill="darkorange" x="22" y="0" width="20" height="10"></rect><rect fill="#ffcf76" x="142" y="0" width="20" height="10"></rect><text x="45" y="10">FDR ≤ 0.05</text><text x="165" y="10">FDR &gt; 0.05</text></g></svg>