<svg xmlns="http://www.w3.org/2000/svg" version="1.1" viewBox="0 0 960 525" width="1920" height="1050"><g transform="translate(20,40)"><g class="x-axis" transform="translate(0, 445)" fill="none" font-size="10" font-family="sans-serif" text-anchor="middle" style="font-size: 12px;"><path class="domain" stroke="currentColor" d="M0.5,6V0.5H910.5V6"></path><g class="tick" opacity="1" transform="translate(0.5,0)"><line stroke="currentColor" y2="6"></line><text fill="currentColor" y="9" dy="0.71em">-3.5</text></g><g class="tick" opacity="1" transform="translate(76.33333333333333,0)"><line stroke="currentColor" y2="6"></line><text fill="currentColor" y="9" dy="0.71em">-3.0</text></g><g class="tick" opacity="1" transform="translate(152.16666666666666,0)"><line stroke="currentColor" y2="6"></line><text fill="currentColor" y="9" dy="0.71em">-2.5</text></g><g class="tick" opacity="1" transform="translate(228,0)"><line stroke="currentColor" y2="6"></line><text fill="currentColor" y="9" dy="0.71em">-2.0</text></g><g class="tick" opacity="1" transform="translate(303.8333333333333,0)"><line stroke="currentColor" y2="6"></line><text fill="currentColor" y="9" dy="0.71em">-1.5</text></g><g class="tick" opacity="1" transform="translate(379.6666666666667,0)"><line stroke="currentColor" y2="6"></line><text fill="currentColor" y="9" dy="0.71em">-1.0</text></g><g class="tick" opacity="1" transform="translate(455.5,0)"><line stroke="currentColor" y2="6"></line><text fill="currentColor" y="9" dy="0.71em">-0.5</text></g><g class="tick" opacity="1" transform="translate(531.3333333333334,0)"><line stroke="currentColor" y2="6"></line><text fill="currentColor" y="9" dy="0.71em">0.0</text></g><g class="tick" opacity="1" transform="translate(607.1666666666666,0)"><line stroke="currentColor" y2="6"></line><text fill="currentColor" y="9" dy="0.71em">0.5</text></g><g class="tick" opacity="1" transform="translate(683,0)"><line stroke="currentColor" y2="6"></line><text fill="currentColor" y="9" dy="0.71em">1.0</text></g><g class="tick" opacity="1" transform="translate(758.8333333333334,0)"><line stroke="currentColor" y2="6"></line><text fill="currentColor" y="9" dy="0.71em">1.5</text></g><g class="tick" opacity="1" transform="translate(834.6666666666666,0)"><line stroke="currentColor" y2="6"></line><text fill="currentColor" y="9" dy="0.71em">2.0</text></g><g class="tick" opacity="1" transform="translate(910.5,0)"><line stroke="currentColor" y2="6"></line><text fill="currentColor" y="9" dy="0.71em">2.5</text></g><text class="x-label" x="530.8333333333334" y="30" fill="#000">Normalized Enrichment Score</text></g><g class="y-axis" transform="translate(530.8333333333334,0)" fill="none" font-size="10" font-family="sans-serif" text-anchor="end" style="font-size: 12px;"><path class="domain" stroke="currentColor" d="M0.5,0.5V445.5"></path><g class="tick" opacity="1" transform="translate(0,14.5)"><text fill="currentColor" x="-6" dy="0.32em">Glutamatergic synapse</text></g><g class="tick" opacity="1" transform="translate(0,36.5)"><text fill="currentColor" x="-6" dy="0.32em">Type II diabetes mellitus</text></g><g class="tick" opacity="1" transform="translate(0,58.5)"><text fill="currentColor" x="-6" dy="0.32em">Herpes simplex infection</text></g><g class="tick" opacity="1" transform="translate(0,80.5)"><text fill="currentColor" x="-6" dy="0.32em">Insulin secretion</text></g><g class="tick" opacity="1" transform="translate(0,102.5)"><text fill="currentColor" x="-6" dy="0.32em">Dilated cardiomyopathy (DCM)</text></g><g class="tick" opacity="1" transform="translate(0,124.5)"><text fill="currentColor" x="-6" dy="0.32em">Axon guidance</text></g><g class="tick" opacity="1" transform="translate(0,146.5)"><text fill="currentColor" x="-6" dy="0.32em">Steroid hormone biosynthesis</text></g><g class="tick" opacity="1" transform="translate(0,168.5)"><text fill="currentColor" x="-6" dy="0.32em">cAMP signaling pathway</text></g><g class="tick" opacity="1" transform="translate(0,190.5)"><text fill="currentColor" x="-6" dy="0.32em">Cholinergic synapse</text></g><g class="tick" opacity="1" transform="translate(0,212.5)"><text fill="currentColor" x="-6" dy="0.32em">NOD-like receptor signaling pathway</text></g><g class="tick" opacity="1" transform="translate(0,234.5)"><text fill="currentColor" x="9" dy="0.32em" style="text-anchor: start;">Metabolic pathways</text></g><g class="tick" opacity="1" transform="translate(0,256.5)"><text fill="currentColor" x="9" dy="0.32em" style="text-anchor: start;">Malaria</text></g><g class="tick" opacity="1" transform="translate(0,278.5)"><text fill="currentColor" x="9" dy="0.32em" style="text-anchor: start;">Huntington disease</text></g><g class="tick" opacity="1" transform="translate(0,300.5)"><text fill="currentColor" x="9" dy="0.32em" style="text-anchor: start;">Non-alcoholic fatty liver disease (NAFLD)</text></g><g class="tick" opacity="1" transform="translate(0,322.5)"><text fill="currentColor" x="9" dy="0.32em" style="text-anchor: start;">Proteasome</text></g><g class="tick" opacity="1" transform="translate(0,344.5)"><text fill="currentColor" x="9" dy="0.32em" style="text-anchor: start;">Glutathione metabolism</text></g><g class="tick" opacity="1" transform="translate(0,366.5)"><text fill="currentColor" x="9" dy="0.32em" style="text-anchor: start;">Alzheimer disease</text></g><g class="tick" opacity="1" transform="translate(0,388.5)"><text fill="currentColor" x="9" dy="0.32em" style="text-anchor: start;">Parkinson disease</text></g><g class="tick" opacity="1" transform="translate(0,410.5)"><text fill="currentColor" x="9" dy="0.32em" style="text-anchor: start;">Oxidative phosphorylation</text></g><g class="tick" opacity="1" transform="translate(0,432.5)"><text fill="currentColor" x="9" dy="0.32em" style="text-anchor: start;">Ribosome</text></g></g><rect class="wg-bar" fill="steelblue" x="530.8333333333334" y="4" transform="translate(0,0)" width="312.88253154520476" height="20"></rect><rect class="wg-bar" fill="steelblue" x="530.8333333333334" y="26" transform="translate(0,0)" width="311.3511957412401" height="20"></rect><rect class="wg-bar" fill="steelblue" x="530.8333333333334" y="48" transform="translate(0,0)" width="309.3744391263026" height="20"></rect><rect class="wg-bar" fill="steelblue" x="530.8333333333334" y="70" transform="translate(0,0)" width="307.55032625896365" height="20"></rect><rect class="wg-bar" fill="steelblue" x="530.8333333333334" y="92" transform="translate(0,0)" width="307.2413752200474" height="20"></rect><rect class="wg-bar" fill="steelblue" x="530.8333333333334" y="114" transform="translate(0,0)" width="302.81371665404254" height="20"></rect><rect class="wg-bar" fill="steelblue" x="530.8333333333334" y="136" transform="translate(0,0)" width="298.7411108260321" height="20"></rect><rect class="wg-bar" fill="steelblue" x="530.8333333333334" y="158" transform="translate(0,0)" width="295.6017339237354" height="20"></rect><rect class="wg-bar" fill="steelblue" x="530.8333333333334" y="180" transform="translate(0,0)" width="293.7499639360649" height="20"></rect><rect class="wg-bar" fill="steelblue" x="530.8333333333334" y="202" transform="translate(0,0)" width="292.6848598802584" height="20"></rect><rect class="wg-bar" fill="darkorange" x="225.08908067369816" y="224" transform="translate(0,0)" width="305.7442526596352" height="20"></rect><rect class="wg-bar" fill="darkorange" x="221.76429866479523" y="246" transform="translate(0,0)" width="309.06903466853817" height="20"></rect><rect class="wg-bar" fill="darkorange" x="214.0032842197872" y="268" transform="translate(0,0)" width="316.8300491135462" height="20"></rect><rect class="wg-bar" fill="darkorange" x="209.67885363530408" y="290" transform="translate(0,0)" width="321.15447969802926" height="20"></rect><rect class="wg-bar" fill="darkorange" x="174.45662643595247" y="312" transform="translate(0,0)" width="356.3767068973809" height="20"></rect><rect class="wg-bar" fill="darkorange" x="161.63743862569333" y="334" transform="translate(0,0)" width="369.19589470764004" height="20"></rect><rect class="wg-bar" fill="darkorange" x="130.14411480092446" y="356" transform="translate(0,0)" width="400.6892185324089" height="20"></rect><rect class="wg-bar" fill="darkorange" x="80.87066138402008" y="378" transform="translate(0,0)" width="449.9626719493133" height="20"></rect><rect class="wg-bar" fill="darkorange" x="55.395204810716976" y="400" transform="translate(0,0)" width="475.4381285226164" height="20"></rect><rect class="wg-bar" fill="darkorange" x="38.28713367500382" y="422" transform="translate(0,0)" width="492.54619965832956" height="20"></rect></g><g class="legend" font-size="12"><rect fill="steelblue" x="0" y="0" width="20" height="10"></rect><rect fill="lightsteelblue" x="120" y="0" width="20" height="10"></rect><rect fill="darkorange" x="22" y="0" width="20" height="10"></rect><rect fill="#ffcf76" x="142" y="0" width="20" height="10"></rect><text x="45" y="10">FDR ≤ 0.05</text><text x="165" y="10">FDR &gt; 0.05</text></g></svg>