<svg xmlns="http://www.w3.org/2000/svg" version="1.1" viewBox="0 0 960 525" width="1920" height="1050"><g transform="translate(20,40)"><g class="x-axis" transform="translate(0, 445)" fill="none" font-size="10" font-family="sans-serif" text-anchor="middle" style="font-size: 12px;"><path class="domain" stroke="currentColor" d="M0.5,6V0.5H910.5V6"></path><g class="tick" opacity="1" transform="translate(0.5,0)"><line stroke="currentColor" y2="6"></line><text fill="currentColor" y="9" dy="0.71em">-3.5</text></g><g class="tick" opacity="1" transform="translate(76.33333333333333,0)"><line stroke="currentColor" y2="6"></line><text fill="currentColor" y="9" dy="0.71em">-3.0</text></g><g class="tick" opacity="1" transform="translate(152.16666666666666,0)"><line stroke="currentColor" y2="6"></line><text fill="currentColor" y="9" dy="0.71em">-2.5</text></g><g class="tick" opacity="1" transform="translate(228,0)"><line stroke="currentColor" y2="6"></line><text fill="currentColor" y="9" dy="0.71em">-2.0</text></g><g class="tick" opacity="1" transform="translate(303.8333333333333,0)"><line stroke="currentColor" y2="6"></line><text fill="currentColor" y="9" dy="0.71em">-1.5</text></g><g class="tick" opacity="1" transform="translate(379.6666666666667,0)"><line stroke="currentColor" y2="6"></line><text fill="currentColor" y="9" dy="0.71em">-1.0</text></g><g class="tick" opacity="1" transform="translate(455.5,0)"><line stroke="currentColor" y2="6"></line><text fill="currentColor" y="9" dy="0.71em">-0.5</text></g><g class="tick" opacity="1" transform="translate(531.3333333333334,0)"><line stroke="currentColor" y2="6"></line><text fill="currentColor" y="9" dy="0.71em">0.0</text></g><g class="tick" opacity="1" transform="translate(607.1666666666666,0)"><line stroke="currentColor" y2="6"></line><text fill="currentColor" y="9" dy="0.71em">0.5</text></g><g class="tick" opacity="1" transform="translate(683,0)"><line stroke="currentColor" y2="6"></line><text fill="currentColor" y="9" dy="0.71em">1.0</text></g><g class="tick" opacity="1" transform="translate(758.8333333333334,0)"><line stroke="currentColor" y2="6"></line><text fill="currentColor" y="9" dy="0.71em">1.5</text></g><g class="tick" opacity="1" transform="translate(834.6666666666666,0)"><line stroke="currentColor" y2="6"></line><text fill="currentColor" y="9" dy="0.71em">2.0</text></g><g class="tick" opacity="1" transform="translate(910.5,0)"><line stroke="currentColor" y2="6"></line><text fill="currentColor" y="9" dy="0.71em">2.5</text></g><text class="x-label" x="530.8333333333334" y="30" fill="#000">Normalized Enrichment Score</text></g><g class="y-axis" transform="translate(530.8333333333334,0)" fill="none" font-size="10" font-family="sans-serif" text-anchor="end" style="font-size: 12px;"><path class="domain" stroke="currentColor" d="M0.5,0.5V445.5"></path><g class="tick" opacity="1" transform="translate(0,14.5)"><text fill="currentColor" x="-6" dy="0.32em">Lysine degradation</text></g><g class="tick" opacity="1" transform="translate(0,36.5)"><text fill="currentColor" x="-6" dy="0.32em">Breast cancer</text></g><g class="tick" opacity="1" transform="translate(0,58.5)"><text fill="currentColor" x="-6" dy="0.32em">Acute myeloid leukemia</text></g><g class="tick" opacity="1" transform="translate(0,80.5)"><text fill="currentColor" x="-6" dy="0.32em">Parathyroid hormone synthesis, secretion and action</text></g><g class="tick" opacity="1" transform="translate(0,102.5)"><text fill="currentColor" x="-6" dy="0.32em">Basal cell carcinoma</text></g><g class="tick" opacity="1" transform="translate(0,124.5)"><text fill="currentColor" x="-6" dy="0.32em">Notch signaling pathway</text></g><g class="tick" opacity="1" transform="translate(0,146.5)"><text fill="currentColor" x="-6" dy="0.32em">Wnt signaling pathway</text></g><g class="tick" opacity="1" transform="translate(0,168.5)"><text fill="currentColor" x="-6" dy="0.32em">Transcriptional misregulation in cancer</text></g><g class="tick" opacity="1" transform="translate(0,190.5)"><text fill="currentColor" x="-6" dy="0.32em">Colorectal cancer</text></g><g class="tick" opacity="1" transform="translate(0,212.5)"><text fill="currentColor" x="-6" dy="0.32em">Signaling pathways regulating pluripotency of stem cells</text></g><g class="tick" opacity="1" transform="translate(0,234.5)"><text fill="currentColor" x="9" dy="0.32em" style="text-anchor: start;">Pertussis</text></g><g class="tick" opacity="1" transform="translate(0,256.5)"><text fill="currentColor" x="9" dy="0.32em" style="text-anchor: start;">Chemical carcinogenesis</text></g><g class="tick" opacity="1" transform="translate(0,278.5)"><text fill="currentColor" x="9" dy="0.32em" style="text-anchor: start;">Parkinson disease</text></g><g class="tick" opacity="1" transform="translate(0,300.5)"><text fill="currentColor" x="9" dy="0.32em" style="text-anchor: start;">Oxidative phosphorylation</text></g><g class="tick" opacity="1" transform="translate(0,322.5)"><text fill="currentColor" x="9" dy="0.32em" style="text-anchor: start;">Drug metabolism</text></g><g class="tick" opacity="1" transform="translate(0,344.5)"><text fill="currentColor" x="9" dy="0.32em" style="text-anchor: start;">Metabolism of xenobiotics by cytochrome P450</text></g><g class="tick" opacity="1" transform="translate(0,366.5)"><text fill="currentColor" x="9" dy="0.32em" style="text-anchor: start;">Systemic lupus erythematosus</text></g><g class="tick" opacity="1" transform="translate(0,388.5)"><text fill="currentColor" x="9" dy="0.32em" style="text-anchor: start;">Retinol metabolism</text></g><g class="tick" opacity="1" transform="translate(0,410.5)"><text fill="currentColor" x="9" dy="0.32em" style="text-anchor: start;">Staphylococcus aureus infection</text></g><g class="tick" opacity="1" transform="translate(0,432.5)"><text fill="currentColor" x="9" dy="0.32em" style="text-anchor: start;">Complement and coagulation cascades</text></g></g><rect class="wg-bar" fill="steelblue" x="530.8333333333334" y="4" transform="translate(0,0)" width="323.6968482296397" height="20"></rect><rect class="wg-bar" fill="lightsteelblue" x="530.8333333333334" y="26" transform="translate(0,0)" width="304.48562453898535" height="20"></rect><rect class="wg-bar" fill="lightsteelblue" x="530.8333333333334" y="48" transform="translate(0,0)" width="285.86277982041634" height="20"></rect><rect class="wg-bar" fill="lightsteelblue" x="530.8333333333334" y="70" transform="translate(0,0)" width="265.19287958626944" height="20"></rect><rect class="wg-bar" fill="lightsteelblue" x="530.8333333333334" y="92" transform="translate(0,0)" width="261.0482276044338" height="20"></rect><rect class="wg-bar" fill="lightsteelblue" x="530.8333333333334" y="114" transform="translate(0,0)" width="255.56793128283232" height="20"></rect><rect class="wg-bar" fill="lightsteelblue" x="530.8333333333334" y="136" transform="translate(0,0)" width="242.47266981965447" height="20"></rect><rect class="wg-bar" fill="lightsteelblue" x="530.8333333333334" y="158" transform="translate(0,0)" width="227.67432703155293" height="20"></rect><rect class="wg-bar" fill="lightsteelblue" x="530.8333333333334" y="180" transform="translate(0,0)" width="226.49731873315352" height="20"></rect><rect class="wg-bar" fill="lightsteelblue" x="530.8333333333334" y="202" transform="translate(0,0)" width="225.56739045915765" height="20"></rect><rect class="wg-bar" fill="darkorange" x="211.42840809572604" y="224" transform="translate(0,0)" width="319.40492523760736" height="20"></rect><rect class="wg-bar" fill="darkorange" x="205.54528621479577" y="246" transform="translate(0,0)" width="325.28804711853763" height="20"></rect><rect class="wg-bar" fill="darkorange" x="203.48899071300494" y="268" transform="translate(0,0)" width="327.34434262032846" height="20"></rect><rect class="wg-bar" fill="darkorange" x="202.25730114178833" y="290" transform="translate(0,0)" width="328.57603219154504" height="20"></rect><rect class="wg-bar" fill="darkorange" x="194.82975596592235" y="312" transform="translate(0,0)" width="336.003577367411" height="20"></rect><rect class="wg-bar" fill="darkorange" x="188.8968242440112" y="334" transform="translate(0,0)" width="341.93650908932216" height="20"></rect><rect class="wg-bar" fill="darkorange" x="170.07099300634474" y="356" transform="translate(0,0)" width="360.76234032698864" height="20"></rect><rect class="wg-bar" fill="darkorange" x="149.53850209707497" y="378" transform="translate(0,0)" width="381.2948312362584" height="20"></rect><rect class="wg-bar" fill="darkorange" x="85.17704909260517" y="400" transform="translate(0,0)" width="445.6562842407282" height="20"></rect><rect class="wg-bar" fill="darkorange" x="5.640495770403441" y="422" transform="translate(0,0)" width="525.19283756293" height="20"></rect></g><g class="legend" font-size="12"><rect fill="steelblue" x="0" y="0" width="20" height="10"></rect><rect fill="lightsteelblue" x="120" y="0" width="20" height="10"></rect><rect fill="darkorange" x="22" y="0" width="20" height="10"></rect><rect fill="#ffcf76" x="142" y="0" width="20" height="10"></rect><text x="45" y="10">FDR ≤ 0.05</text><text x="165" y="10">FDR &gt; 0.05</text></g></svg>