<svg xmlns="http://www.w3.org/2000/svg" version="1.1" viewBox="0 0 960 525" width="1920" height="1050"><g transform="translate(20,40)"><g class="x-axis" transform="translate(0, 445)" fill="none" font-size="10" font-family="sans-serif" text-anchor="middle" style="font-size: 12px;"><path class="domain" stroke="currentColor" d="M0.5,6V0.5H910.5V6"></path><g class="tick" opacity="1" transform="translate(0.5,0)"><line stroke="currentColor" y2="6"></line><text fill="currentColor" y="9" dy="0.71em">-4.0</text></g><g class="tick" opacity="1" transform="translate(70.5,0)"><line stroke="currentColor" y2="6"></line><text fill="currentColor" y="9" dy="0.71em">-3.5</text></g><g class="tick" opacity="1" transform="translate(140.5,0)"><line stroke="currentColor" y2="6"></line><text fill="currentColor" y="9" dy="0.71em">-3.0</text></g><g class="tick" opacity="1" transform="translate(210.5,0)"><line stroke="currentColor" y2="6"></line><text fill="currentColor" y="9" dy="0.71em">-2.5</text></g><g class="tick" opacity="1" transform="translate(280.5,0)"><line stroke="currentColor" y2="6"></line><text fill="currentColor" y="9" dy="0.71em">-2.0</text></g><g class="tick" opacity="1" transform="translate(350.5,0)"><line stroke="currentColor" y2="6"></line><text fill="currentColor" y="9" dy="0.71em">-1.5</text></g><g class="tick" opacity="1" transform="translate(420.5,0)"><line stroke="currentColor" y2="6"></line><text fill="currentColor" y="9" dy="0.71em">-1.0</text></g><g class="tick" opacity="1" transform="translate(490.5,0)"><line stroke="currentColor" y2="6"></line><text fill="currentColor" y="9" dy="0.71em">-0.5</text></g><g class="tick" opacity="1" transform="translate(560.5,0)"><line stroke="currentColor" y2="6"></line><text fill="currentColor" y="9" dy="0.71em">0.0</text></g><g class="tick" opacity="1" transform="translate(630.5,0)"><line stroke="currentColor" y2="6"></line><text fill="currentColor" y="9" dy="0.71em">0.5</text></g><g class="tick" opacity="1" transform="translate(700.5,0)"><line stroke="currentColor" y2="6"></line><text fill="currentColor" y="9" dy="0.71em">1.0</text></g><g class="tick" opacity="1" transform="translate(770.5,0)"><line stroke="currentColor" y2="6"></line><text fill="currentColor" y="9" dy="0.71em">1.5</text></g><g class="tick" opacity="1" transform="translate(840.5,0)"><line stroke="currentColor" y2="6"></line><text fill="currentColor" y="9" dy="0.71em">2.0</text></g><g class="tick" opacity="1" transform="translate(910.5,0)"><line stroke="currentColor" y2="6"></line><text fill="currentColor" y="9" dy="0.71em">2.5</text></g><text class="x-label" x="560" y="30" fill="#000">Normalized Enrichment Score</text></g><g class="y-axis" transform="translate(560,0)" fill="none" font-size="10" font-family="sans-serif" text-anchor="end" style="font-size: 12px;"><path class="domain" stroke="currentColor" d="M0.5,0.5V445.5"></path><g class="tick" opacity="1" transform="translate(0,14.5)"><text fill="currentColor" x="-6" dy="0.32em">Arachidonic acid metabolism</text></g><g class="tick" opacity="1" transform="translate(0,36.5)"><text fill="currentColor" x="-6" dy="0.32em">Bile secretion</text></g><g class="tick" opacity="1" transform="translate(0,58.5)"><text fill="currentColor" x="-6" dy="0.32em">Retinol metabolism</text></g><g class="tick" opacity="1" transform="translate(0,80.5)"><text fill="currentColor" x="-6" dy="0.32em">Inflammatory mediator regulation of TRP channels</text></g><g class="tick" opacity="1" transform="translate(0,102.5)"><text fill="currentColor" x="-6" dy="0.32em">Serotonergic synapse</text></g><g class="tick" opacity="1" transform="translate(0,124.5)"><text fill="currentColor" x="-6" dy="0.32em">Fatty acid degradation</text></g><g class="tick" opacity="1" transform="translate(0,146.5)"><text fill="currentColor" x="-6" dy="0.32em">Phenylalanine metabolism</text></g><g class="tick" opacity="1" transform="translate(0,168.5)"><text fill="currentColor" x="-6" dy="0.32em">Carbohydrate digestion and absorption</text></g><g class="tick" opacity="1" transform="translate(0,190.5)"><text fill="currentColor" x="-6" dy="0.32em">PPAR signaling pathway</text></g><g class="tick" opacity="1" transform="translate(0,212.5)"><text fill="currentColor" x="-6" dy="0.32em">Ovarian steroidogenesis</text></g><g class="tick" opacity="1" transform="translate(0,234.5)"><text fill="currentColor" x="9" dy="0.32em" style="text-anchor: start;">Nucleotide excision repair</text></g><g class="tick" opacity="1" transform="translate(0,256.5)"><text fill="currentColor" x="9" dy="0.32em" style="text-anchor: start;">Protein export</text></g><g class="tick" opacity="1" transform="translate(0,278.5)"><text fill="currentColor" x="9" dy="0.32em" style="text-anchor: start;">Spliceosome</text></g><g class="tick" opacity="1" transform="translate(0,300.5)"><text fill="currentColor" x="9" dy="0.32em" style="text-anchor: start;">Ribosome biogenesis in eukaryotes</text></g><g class="tick" opacity="1" transform="translate(0,322.5)"><text fill="currentColor" x="9" dy="0.32em" style="text-anchor: start;">DNA replication</text></g><g class="tick" opacity="1" transform="translate(0,344.5)"><text fill="currentColor" x="9" dy="0.32em" style="text-anchor: start;">Proteasome</text></g><g class="tick" opacity="1" transform="translate(0,366.5)"><text fill="currentColor" x="9" dy="0.32em" style="text-anchor: start;">Huntington disease</text></g><g class="tick" opacity="1" transform="translate(0,388.5)"><text fill="currentColor" x="9" dy="0.32em" style="text-anchor: start;">Parkinson disease</text></g><g class="tick" opacity="1" transform="translate(0,410.5)"><text fill="currentColor" x="9" dy="0.32em" style="text-anchor: start;">Oxidative phosphorylation</text></g><g class="tick" opacity="1" transform="translate(0,432.5)"><text fill="currentColor" x="9" dy="0.32em" style="text-anchor: start;">Ribosome</text></g></g><rect class="wg-bar" fill="steelblue" x="560" y="4" transform="translate(0,0)" width="337.45892261805784" height="20"></rect><rect class="wg-bar" fill="steelblue" x="560" y="26" transform="translate(0,0)" width="336.36704371143855" height="20"></rect><rect class="wg-bar" fill="steelblue" x="560" y="48" transform="translate(0,0)" width="322.4497705456216" height="20"></rect><rect class="wg-bar" fill="steelblue" x="560" y="70" transform="translate(0,0)" width="321.84766678469157" height="20"></rect><rect class="wg-bar" fill="steelblue" x="560" y="92" transform="translate(0,0)" width="312.10155062968" height="20"></rect><rect class="wg-bar" fill="steelblue" x="560" y="114" transform="translate(0,0)" width="308.897473938256" height="20"></rect><rect class="wg-bar" fill="steelblue" x="560" y="136" transform="translate(0,0)" width="303.8987353781931" height="20"></rect><rect class="wg-bar" fill="steelblue" x="560" y="158" transform="translate(0,0)" width="296.42120576628156" height="20"></rect><rect class="wg-bar" fill="steelblue" x="560" y="180" transform="translate(0,0)" width="288.85423545336107" height="20"></rect><rect class="wg-bar" fill="steelblue" x="560" y="202" transform="translate(0,0)" width="282.1819750147189" height="20"></rect><rect class="wg-bar" fill="darkorange" x="239.76457317182016" y="224" transform="translate(0,0)" width="320.2354268281798" height="20"></rect><rect class="wg-bar" fill="darkorange" x="237.5531708120844" y="246" transform="translate(0,0)" width="322.44682918791557" height="20"></rect><rect class="wg-bar" fill="darkorange" x="230.3988904157388" y="268" transform="translate(0,0)" width="329.60110958426117" height="20"></rect><rect class="wg-bar" fill="darkorange" x="213.05777786555777" y="290" transform="translate(0,0)" width="346.9422221344422" height="20"></rect><rect class="wg-bar" fill="darkorange" x="208.14365979068756" y="312" transform="translate(0,0)" width="351.8563402093124" height="20"></rect><rect class="wg-bar" fill="darkorange" x="180.33325283258742" y="334" transform="translate(0,0)" width="379.6667471674126" height="20"></rect><rect class="wg-bar" fill="darkorange" x="175.73684582573702" y="356" transform="translate(0,0)" width="384.263154174263" height="20"></rect><rect class="wg-bar" fill="darkorange" x="124.4033577100972" y="378" transform="translate(0,0)" width="435.5966422899028" height="20"></rect><rect class="wg-bar" fill="darkorange" x="119.17993988427662" y="400" transform="translate(0,0)" width="440.8200601157234" height="20"></rect><rect class="wg-bar" fill="darkorange" x="22.217475889054626" y="422" transform="translate(0,0)" width="537.7825241109454" height="20"></rect></g><g class="legend" font-size="12"><rect fill="steelblue" x="0" y="0" width="20" height="10"></rect><rect fill="lightsteelblue" x="120" y="0" width="20" height="10"></rect><rect fill="darkorange" x="22" y="0" width="20" height="10"></rect><rect fill="#ffcf76" x="142" y="0" width="20" height="10"></rect><text x="45" y="10">FDR ≤ 0.05</text><text x="165" y="10">FDR &gt; 0.05</text></g></svg>